<?xml version="1.0" encoding="UTF-8" standalone="no"?>
<svg width="512" height="512" version="1.1" xmlns="http://www.w3.org/2000/svg" xmlns:svg="http://www.w3.org/2000/svg" xmlns:rdf="http://www.w3.org/1999/02/22-rdf-syntax-ns#" xmlns:cc="http://creativecommons.org/ns#" xmlns:dc="http://purl.org/dc/elements/1.1/">
  <title>tgwhi.dev favicon</title>
<rect width="100%" height="100%" fill="#0d1117" />
<path style="font-weight:800; font-family:'JetBrains Mono'; fill:#e6edf3; fill-opacity:1;" d="M 191.26664,-3.9959267 V 42.296318 h -44.20243 v 40.319678 h 44.20243 V 152.8024 c 0,1.20337 0.0325,2.38251 0.082,3.54877 V 297.972 h -0.01 v 218.02393 h 44.80008 V 414.45065 c 0,-8.56163 2.18984,-15.13114 6.57021,-19.71065 4.57948,-4.77857 10.8518,-7.16784 18.81611,-7.16784 7.96431,0 14.13692,2.38927 18.51729,7.16784 4.57948,4.57951 6.86903,11.14902 6.86903,19.71065 v 101.54528 h 44.79813 V 409.97024 c 0,-18.51702 -4.8763,-33.34926 -14.63259,-44.4993 -9.55717,-11.15003 -22.30124,-16.7263 -38.22987,-16.7263 -11.15003,0 -20.70711,2.98757 -28.67142,8.9608 -7.7652,5.77412 -12.9426,13.63799 -15.53101,23.59337 l 1.49412,-29.56789 V 297.972 h -0.0566 v -91.90676 c 2.85817,0.32945 5.83796,0.49608 8.94322,0.49608 h 53.75901 v -40.31968 h -49.27853 c -4.38037,0 -7.76484,-1.39406 -10.15413,-4.18157 -2.10592,-2.68027 -3.18846,-6.10474 -3.26948,-10.25765 v -8.57214 h -0.0155 V 82.615996 h 64.21188 V 42.296318 H 236.06672 V -3.9959267 Z M 390.7733,39.310035 c -16.52596,0 -29.76667,5.87346 -39.72205,17.620819 -9.95539,11.548249 -14.93336,27.078507 -14.93336,46.591066 v 29.86672 c 0,19.71167 4.97797,35.34164 14.93336,46.88989 9.95538,11.54825 23.19609,17.32199 39.72205,17.32199 10.15448,0 18.91578,-2.38927 26.28276,-7.16785 7.36702,-4.77859 13.04102,-11.54754 17.02318,-20.30828 l -0.29896,24.48986 v 6.27138 c 0,7.36699 -2.28956,13.14073 -6.86903,17.322 -4.3804,4.18126 -10.75243,6.27334 -19.11496,6.27334 h -46.29208 v 35.83928 h 47.78637 c 21.10542,0 37.73058,-5.17741 49.87617,-15.53101 12.34468,-10.3536 18.51727,-24.4898 18.51727,-42.40949 V 42.296318 h -43.30594 v 24.788671 c -3.98216,-8.76074 -9.6562,-15.529688 -17.02318,-20.308274 -7.36697,-4.977692 -16.22801,-7.46668 -26.5816,-7.46668 z m 16.12669,38.825564 c 8.16342,0 14.53545,2.38927 19.11492,7.167856 4.57947,4.57948 6.86904,11.150951 6.86904,19.712585 v 26.87848 c 0,8.56164 -2.28957,15.23282 -6.86904,20.01141 -4.57947,4.57948 -10.9515,6.86903 -19.11492,6.86903 -8.36253,0 -14.83234,-2.28955 -19.41181,-6.86903 -4.38036,-4.77859 -6.57022,-11.44977 -6.57022,-20.01141 v -26.87848 c 0,-8.561634 2.18986,-15.133105 6.57022,-19.712585 4.57947,-4.778586 11.04928,-7.167856 19.41181,-7.167856 z M 446.3974,279.15784 c -8.16339,0 -14.73487,2.09012 -19.71258,6.27139 -4.77857,4.18126 -7.16783,9.85529 -7.16783,17.02317 0,7.16788 2.38926,12.84191 7.16783,17.02317 4.97771,4.18126 11.54919,6.27334 19.71258,6.27334 8.16342,0 14.63323,-2.09208 19.4118,-6.27334 4.97771,-4.18126 7.46668,-9.85529 7.46668,-17.02317 0,-7.16788 -2.48897,-12.84191 -7.46668,-17.02317 -4.77857,-4.18127 -11.24838,-6.27139 -19.4118,-6.27139 z M -6.0759636,351.73092 18.71271,515.99593 H 63.811611 L 77.54968,423.41142 c 0.597322,-3.78302 1.193662,-8.06493 1.790988,-12.84354 l 1.792938,-14.93336 c 0.597323,-4.97767 0.896471,-9.15791 0.896471,-12.54277 0.398216,5.17682 1.094273,11.74633 2.089812,19.71065 0.995538,7.96428 1.891027,14.8349 2.687459,20.60902 l 13.441192,92.58451 h 44.79812 l 25.0875,-164.26501 h -33.45065 l -13.43924,89.60017 c -1.19465,7.56608 -1.99042,15.72909 -2.38863,24.48982 -0.39822,8.56167 -0.79708,15.72947 -1.1953,21.50359 -0.39821,-5.77412 -0.99455,-12.94192 -1.79099,-21.50359 -0.79642,-8.76073 -1.89134,-16.92374 -3.2851,-24.48982 L 99.352074,351.73092 H 65.303776 l -15.827877,89.60017 c -1.393754,7.56608 -2.390911,15.62939 -2.988233,24.19102 -0.597322,8.56163 -1.093948,15.72943 -1.492164,21.50355 -0.398216,-5.77412 -0.896796,-12.94192 -1.494118,-21.50355 -0.597323,-8.56163 -1.393094,-16.62494 -2.388636,-24.19102 L 28.269201,351.73092 Z m 383.7810836,0 v 40.31969 h 48.38206 v 83.62565 h -54.35657 v 40.31967 H 518.07596 V 475.67626 H 470.88725 V 351.73092 Z" />
  <metadata>
    <rdf:RDF>
      <cc:Work
         rdf:about="">
        <dc:title>tgwhi.dev favicon</dc:title>
      </cc:Work>
    </rdf:RDF>
  </metadata>
</svg>
